<svg width="146" height="59" viewBox="0 0 146 59" fill="none" xmlns="http://www.w3.org/2000/svg">
<path d="M34.5469 15.6641C34.5625 15.6953 34.5938 15.7734 34.6406 15.8984C34.6875 16.0078 34.7344 16.1406 34.7812 16.2969C34.8281 16.4375 34.8672 16.5859 34.8984 16.7422C34.9453 16.8828 34.9688 16.9844 34.9688 17.0469C34.9688 17.5781 34.8594 18.2188 34.6406 18.9688C34.4219 19.7031 34.1172 20.4844 33.7266 21.3125C33.3516 22.1406 32.9062 22.9844 32.3906 23.8438C31.875 24.7031 31.3281 25.5234 30.75 26.3047C30.1719 27.0703 29.5703 27.7734 28.9453 28.4141C28.3359 29.0391 27.7344 29.5391 27.1406 29.9141C26.9219 29.7109 26.6562 29.4688 26.3438 29.1875C26.0469 28.9062 25.7266 28.6094 25.3828 28.2969C25.0391 27.9688 24.6953 27.6406 24.3516 27.3125C24.0078 26.9844 23.6875 26.6641 23.3906 26.3516C23.8438 25.9922 24.3516 25.5234 24.9141 24.9453C25.4922 24.3516 26.0703 23.6953 26.6484 22.9766C27.2422 22.2578 27.8203 21.5156 28.3828 20.75C28.9453 19.9844 29.4297 19.25 29.8359 18.5469C30.2578 17.8281 30.5859 17.1797 30.8203 16.6016C31.0547 16.0234 31.1406 15.5625 31.0781 15.2188C31.0312 15.0469 30.9531 14.9297 30.8438 14.8672C30.75 14.7891 30.5703 14.75 30.3047 14.75C29.3516 14.75 28.25 14.9375 27 15.3125C25.75 15.6875 24.4453 16.2344 23.0859 16.9531C21.7266 17.6562 20.3516 18.5234 18.9609 19.5547C17.5859 20.5859 16.2891 21.75 15.0703 23.0469C13.8672 24.3438 12.7891 25.7656 11.8359 27.3125C10.8984 28.8594 10.1797 30.5078 9.67969 32.2578C10.7734 32.2422 11.8125 32.2031 12.7969 32.1406C13.7812 32.0625 14.7188 31.9844 15.6094 31.9062C16.5 31.8281 17.3516 31.7578 18.1641 31.6953C18.9766 31.6328 19.7656 31.6016 20.5312 31.6016C20.9375 31.6016 21.375 31.8203 21.8438 32.2578C22.3125 32.6953 22.75 33.2188 23.1562 33.8281C23.5625 34.4375 23.8984 35.0625 24.1641 35.7031C24.4297 36.3438 24.5625 36.8594 24.5625 37.25C24.5625 38.3594 24.2734 39.4766 23.6953 40.6016C23.1328 41.7109 22.3672 42.7891 21.3984 43.8359C20.4453 44.8672 19.3359 45.8359 18.0703 46.7422C16.8047 47.6328 15.4688 48.4062 14.0625 49.0625C12.6719 49.7344 11.25 50.2578 9.79688 50.6328C8.34375 51.0234 6.96094 51.2188 5.64844 51.2188C5.47656 51.0781 5.25 50.8594 4.96875 50.5625C4.6875 50.2812 4.38281 49.9609 4.05469 49.6016C3.74219 49.2578 3.41406 48.8906 3.07031 48.5C2.74219 48.1094 2.4375 47.7344 2.15625 47.375C1.85938 47.0156 1.60156 46.6875 1.38281 46.3906C1.16406 46.0938 1.01562 45.8672 0.9375 45.7109C1.79688 45.8359 2.82812 45.8672 4.03125 45.8047C5.25 45.7422 6.53125 45.5703 7.875 45.2891C9.21875 45.0078 10.5703 44.6094 11.9297 44.0938C13.3047 43.5625 14.5859 42.8984 15.7734 42.1016C16.9609 41.3047 18.0078 40.3594 18.9141 39.2656C19.8203 38.1562 20.4766 36.875 20.8828 35.4219C19.9766 35.4375 19.1562 35.4844 18.4219 35.5625C17.6875 35.625 16.9766 35.7031 16.2891 35.7969C15.6016 35.875 14.8984 35.9453 14.1797 36.0078C13.4609 36.0703 12.6641 36.1016 11.7891 36.1016C11.5078 36.1016 11.2031 36.1016 10.875 36.1016C10.5469 36.0859 10.2188 36.0625 9.89062 36.0312C9.5625 35.9844 9.25 35.9141 8.95312 35.8203C8.65625 35.7266 8.41406 35.5938 8.22656 35.4219C7.80469 35.0625 7.39844 34.6875 7.00781 34.2969C6.61719 33.8906 6.26562 33.4844 5.95312 33.0781C5.64062 32.6562 5.39062 32.2344 5.20312 31.8125C5.01562 31.3906 4.92188 30.9844 4.92188 30.5938C4.92188 29.4062 5.21875 28.0859 5.8125 26.6328C6.40625 25.1641 7.22656 23.6875 8.27344 22.2031C9.33594 20.7188 10.5859 19.2812 12.0234 17.8906C13.4609 16.4844 15.0234 15.2344 16.7109 14.1406C18.4141 13.0469 20.2031 12.1719 22.0781 11.5156C23.9531 10.8594 25.8516 10.5312 27.7734 10.5312C28.4453 10.5312 29.0547 10.6328 29.6016 10.8359C30.1641 11.0391 30.6719 11.3047 31.125 11.6328C31.5781 11.9609 31.9844 12.3281 32.3438 12.7344C32.7031 13.125 33.0234 13.5078 33.3047 13.8828C33.5859 14.2578 33.8281 14.6094 34.0312 14.9375C34.2344 15.25 34.4062 15.4922 34.5469 15.6641ZM32.6953 48.2891C32.4297 48.2891 32.0781 48.1641 31.6406 47.9141C31.2188 47.6797 30.8047 47.3828 30.3984 47.0234C29.9922 46.6797 29.6406 46.3203 29.3438 45.9453C29.0469 45.5703 28.8984 45.25 28.8984 44.9844C28.8984 44.5156 29.0312 43.7734 29.2969 42.7578C29.5469 41.7422 29.8828 40.5859 30.3047 39.2891C30.7266 37.9766 31.2031 36.5781 31.7344 35.0938C32.2812 33.6094 32.8281 32.1562 33.375 30.7344H30.0703H30.0469C30.0312 30.7344 30.0234 30.7188 30.0234 30.6875C30.0234 30.5938 30.0625 30.4609 30.1406 30.2891C30.2031 30.1016 30.2891 29.9141 30.3984 29.7266C30.4922 29.5234 30.6094 29.3438 30.75 29.1875C30.875 29.0156 31 28.9062 31.125 28.8594L34.1719 28.7188C34.6094 27.6562 35.0234 26.6797 35.4141 25.7891C35.8203 24.8828 36.1797 24.1094 36.4922 23.4688C36.5703 23.2969 36.6484 23.1172 36.7266 22.9297C36.8203 22.7266 36.9453 22.5312 37.1016 22.3438C37.2734 22.1406 37.4922 21.9375 37.7578 21.7344C38.0391 21.5156 38.4141 21.2969 38.8828 21.0781C39.2266 20.9062 39.6406 20.7188 40.125 20.5156C40.625 20.3125 41.1094 20.125 41.5781 19.9531C42.0625 19.7812 42.5 19.6406 42.8906 19.5312C43.2812 19.4062 43.5625 19.3438 43.7344 19.3438C43.8906 19.3438 43.9688 19.375 43.9688 19.4375V19.4844C43.9688 19.5 43.9531 19.5391 43.9219 19.6016C43.8281 19.7578 43.6562 20.1016 43.4062 20.6328C43.1562 21.1484 42.8438 21.8047 42.4688 22.6016C42.1094 23.3828 41.7031 24.2812 41.25 25.2969C40.8125 26.2969 40.3594 27.3594 39.8906 28.4844L45.5156 28.2734C45.6719 28.2734 45.7188 28.3672 45.6562 28.5547C45.5938 28.7422 45.4766 28.9609 45.3047 29.2109C45.1328 29.4609 44.9297 29.7188 44.6953 29.9844C44.4766 30.25 44.2891 30.4531 44.1328 30.5938C44.1016 30.625 44.0391 30.6562 43.9453 30.6875C43.8516 30.7188 43.7344 30.7344 43.5938 30.7344H38.9531C38.3906 32.0938 37.8516 33.4688 37.3359 34.8594C36.8203 36.25 36.3594 37.5703 35.9531 38.8203C35.5469 40.0703 35.2188 41.2188 34.9688 42.2656C34.7344 43.3125 34.6172 44.1719 34.6172 44.8438C34.6172 44.9375 34.6641 44.9844 34.7578 44.9844C34.9297 44.9844 35.1875 44.8906 35.5312 44.7031C35.875 44.5 36.2578 44.2422 36.6797 43.9297C37.1172 43.6172 37.5781 43.2734 38.0625 42.8984C38.5469 42.5234 39.0078 42.1562 39.4453 41.7969C39.8828 41.4219 40.2734 41.0859 40.6172 40.7891C40.9766 40.4766 41.25 40.2422 41.4375 40.0859C41.5781 40.2266 41.7422 40.4062 41.9297 40.625C42.1328 40.8438 42.3203 41.0469 42.4922 41.2344C42.1484 41.5781 41.7188 42 41.2031 42.5C40.6875 42.9844 40.125 43.4844 39.5156 44C38.9219 44.5156 38.2969 45.0312 37.6406 45.5469C37 46.0625 36.3672 46.5234 35.7422 46.9297C35.1328 47.3359 34.5625 47.6641 34.0312 47.9141C33.5 48.1641 33.0547 48.2891 32.6953 48.2891ZM57.6797 41.2344C56.2422 42.6406 54.8828 43.8203 53.6016 44.7734C52.3359 45.7266 51.125 46.4922 49.9688 47.0703C48.8125 47.6484 47.7031 48.0625 46.6406 48.3125C45.5938 48.5625 44.5703 48.6875 43.5703 48.6875C43.1484 48.6875 42.6797 48.5312 42.1641 48.2188C41.6484 47.9062 41.1719 47.5234 40.7344 47.0703C40.2812 46.6328 39.9062 46.1719 39.6094 45.6875C39.3125 45.2031 39.1641 44.7891 39.1641 44.4453C39.1641 43.1641 39.3438 41.9922 39.7031 40.9297C40.0469 39.8516 40.5078 38.8828 41.0859 38.0234C41.6641 37.1641 42.3203 36.4062 43.0547 35.75C43.8047 35.0938 44.5781 34.5469 45.375 34.1094C46.1875 33.6719 46.9922 33.3438 47.7891 33.125C48.5859 32.9062 49.3203 32.7969 49.9922 32.7969C50.4766 32.7969 50.9531 32.9375 51.4219 33.2188C51.9062 33.5 52.3438 33.8438 52.7344 34.25C53.125 34.6562 53.4375 35.0859 53.6719 35.5391C53.9219 35.9766 54.0469 36.3594 54.0469 36.6875C54.0469 37.2188 53.8203 37.7656 53.3672 38.3281C52.9297 38.875 52.3047 39.4375 51.4922 40.0156C50.6797 40.5938 49.7031 41.1875 48.5625 41.7969C47.4219 42.3906 46.1641 42.9922 44.7891 43.6016C44.7422 43.9766 44.7188 44.3438 44.7188 44.7031C44.7188 45.1875 44.8203 45.5156 45.0234 45.6875C45.2422 45.8594 45.6406 45.9453 46.2188 45.9453C47.25 45.9453 48.2188 45.7734 49.125 45.4297C50.0469 45.0859 50.9297 44.6406 51.7734 44.0938C52.6172 43.5469 53.4297 42.9219 54.2109 42.2188C54.9922 41.5156 55.7656 40.8047 56.5312 40.0859L57.6797 41.2344ZM49.4297 35.375C49.1172 35.375 48.7734 35.5469 48.3984 35.8906C48.0234 36.2188 47.6484 36.6562 47.2734 37.2031C46.8984 37.75 46.5391 38.3828 46.1953 39.1016C45.8516 39.8047 45.5547 40.5391 45.3047 41.3047C45.8828 40.9297 46.4453 40.5312 46.9922 40.1094C47.5547 39.6875 48.0547 39.25 48.4922 38.7969C48.9297 38.3281 49.2812 37.8516 49.5469 37.3672C49.8125 36.8828 49.9453 36.3984 49.9453 35.9141C49.9453 35.7734 49.8984 35.6484 49.8047 35.5391C49.7266 35.4297 49.6016 35.375 49.4297 35.375ZM61.5 45.3594C61.75 45.3594 62.0859 45.25 62.5078 45.0312C62.9453 44.8125 63.4219 44.5391 63.9375 44.2109C64.4531 43.8672 64.9922 43.4922 65.5547 43.0859C66.1172 42.6797 66.6406 42.2812 67.125 41.8906C67.625 41.5 68.0703 41.1406 68.4609 40.8125C68.8516 40.4844 69.1406 40.2422 69.3281 40.0859C69.4688 40.2266 69.6328 40.4062 69.8203 40.625C70.0234 40.8438 70.2109 41.0469 70.3828 41.2344C70.0391 41.5781 69.6094 42 69.0938 42.5C68.5781 42.9844 68.0156 43.4844 67.4062 44C66.8125 44.5156 66.1875 45.0312 65.5312 45.5469C64.8906 46.0625 64.2578 46.5234 63.6328 46.9297C63.0234 47.3359 62.4531 47.6641 61.9219 47.9141C61.3906 48.1641 60.9453 48.2891 60.5859 48.2891C60.1016 48.2891 59.5859 48.1172 59.0391 47.7734C58.5078 47.4297 58.0078 47.0312 57.5391 46.5781C57.0703 46.1094 56.6719 45.6406 56.3438 45.1719C56.0156 44.7031 55.8281 44.3516 55.7812 44.1172C55.75 44.0234 55.7344 43.9141 55.7344 43.7891C55.7344 43.6484 55.7344 43.5 55.7344 43.3438C55.7344 42.5625 55.8359 41.5781 56.0391 40.3906C56.2266 39.1875 56.4844 37.9219 56.8125 36.5938C57.1406 35.25 57.5156 33.9219 57.9375 32.6094C58.375 31.2812 58.8281 30.1094 59.2969 29.0938C60.25 27.0156 61.2266 25.1719 62.2266 23.5625C63.2422 21.9531 64.2344 20.5547 65.2031 19.3672C66.1719 18.1641 67.1016 17.1562 67.9922 16.3438C68.8828 15.5312 69.6797 14.875 70.3828 14.375C71.1016 13.875 71.7031 13.5156 72.1875 13.2969C72.6875 13.0781 73.0312 12.9688 73.2188 12.9688C73.5156 13.0781 73.8125 13.2422 74.1094 13.4609C74.4219 13.6641 74.7109 13.8828 74.9766 14.1172C75.2422 14.3516 75.4766 14.5859 75.6797 14.8203C75.8828 15.0391 76.0312 15.2031 76.125 15.3125C76.25 15.4375 76.3281 15.5625 76.3594 15.6875C76.4062 15.7969 76.4297 15.9453 76.4297 16.1328C76.4297 16.5078 76.3359 17.0234 76.1484 17.6797C75.9609 18.3359 75.6094 19.1719 75.0938 20.1875C74.5781 21.1875 73.8594 22.3906 72.9375 23.7969C72.0312 25.2031 70.8438 26.8438 69.375 28.7188C68.6875 29.5938 67.9609 30.4844 67.1953 31.3906C66.5391 32.1719 65.7812 33.0234 64.9219 33.9453C64.0625 34.8672 63.1797 35.75 62.2734 36.5938C61.8203 38.3125 61.5 39.8281 61.3125 41.1406C61.1406 42.4531 61.0547 43.4766 61.0547 44.2109C61.0547 44.6953 61.0938 45.0078 61.1719 45.1484C61.25 45.2891 61.3594 45.3594 61.5 45.3594ZM65.25 28.1797C64.9844 28.7734 64.7344 29.3516 64.5 29.9141C64.2812 30.4766 64.0703 31.0312 63.8672 31.5781C64.3516 31.0312 64.7891 30.5078 65.1797 30.0078C65.5859 29.5078 65.9297 29.0781 66.2109 28.7188C66.5391 28.2969 66.8359 27.8984 67.1016 27.5234C68.1953 25.9922 69.1406 24.5859 69.9375 23.3047C70.7344 22.0234 71.3906 20.8984 71.9062 19.9297C72.4219 18.9453 72.7969 18.1328 73.0312 17.4922C73.2812 16.8359 73.4062 16.3672 73.4062 16.0859C73.4062 16.0078 73.3984 15.9531 73.3828 15.9219C73.3828 15.875 73.3438 15.8516 73.2656 15.8516C73.125 15.8516 72.8047 16.0859 72.3047 16.5547C71.8047 17.0078 71.1875 17.7344 70.4531 18.7344C69.7344 19.7344 68.9219 21.0156 68.0156 22.5781C67.125 24.125 66.2031 25.9922 65.25 28.1797ZM74.25 45.3594C74.5 45.3594 74.8359 45.25 75.2578 45.0312C75.6953 44.8125 76.1719 44.5391 76.6875 44.2109C77.2031 43.8672 77.7422 43.4922 78.3047 43.0859C78.8672 42.6797 79.3906 42.2812 79.875 41.8906C80.375 41.5 80.8203 41.1406 81.2109 40.8125C81.6016 40.4844 81.8906 40.2422 82.0781 40.0859C82.2188 40.2266 82.3828 40.4062 82.5703 40.625C82.7734 40.8438 82.9609 41.0469 83.1328 41.2344C82.7891 41.5781 82.3594 42 81.8438 42.5C81.3281 42.9844 80.7656 43.4844 80.1562 44C79.5625 44.5156 78.9375 45.0312 78.2812 45.5469C77.6406 46.0625 77.0078 46.5234 76.3828 46.9297C75.7734 47.3359 75.2031 47.6641 74.6719 47.9141C74.1406 48.1641 73.6953 48.2891 73.3359 48.2891C72.8516 48.2891 72.3359 48.1172 71.7891 47.7734C71.2578 47.4297 70.7578 47.0312 70.2891 46.5781C69.8203 46.1094 69.4219 45.6406 69.0938 45.1719C68.7656 44.7031 68.5781 44.3516 68.5312 44.1172C68.5 44.0234 68.4844 43.9141 68.4844 43.7891C68.4844 43.6484 68.4844 43.5 68.4844 43.3438C68.4844 42.5625 68.5859 41.5781 68.7891 40.3906C68.9766 39.1875 69.2344 37.9219 69.5625 36.5938C69.8906 35.25 70.2656 33.9219 70.6875 32.6094C71.125 31.2812 71.5781 30.1094 72.0469 29.0938C73 27.0156 73.9766 25.1719 74.9766 23.5625C75.9922 21.9531 76.9844 20.5547 77.9531 19.3672C78.9219 18.1641 79.8516 17.1562 80.7422 16.3438C81.6328 15.5312 82.4297 14.875 83.1328 14.375C83.8516 13.875 84.4531 13.5156 84.9375 13.2969C85.4375 13.0781 85.7812 12.9688 85.9688 12.9688C86.2656 13.0781 86.5625 13.2422 86.8594 13.4609C87.1719 13.6641 87.4609 13.8828 87.7266 14.1172C87.9922 14.3516 88.2266 14.5859 88.4297 14.8203C88.6328 15.0391 88.7812 15.2031 88.875 15.3125C89 15.4375 89.0781 15.5625 89.1094 15.6875C89.1562 15.7969 89.1797 15.9453 89.1797 16.1328C89.1797 16.5078 89.0859 17.0234 88.8984 17.6797C88.7109 18.3359 88.3594 19.1719 87.8438 20.1875C87.3281 21.1875 86.6094 22.3906 85.6875 23.7969C84.7812 25.2031 83.5938 26.8438 82.125 28.7188C81.4375 29.5938 80.7109 30.4844 79.9453 31.3906C79.2891 32.1719 78.5312 33.0234 77.6719 33.9453C76.8125 34.8672 75.9297 35.75 75.0234 36.5938C74.5703 38.3125 74.25 39.8281 74.0625 41.1406C73.8906 42.4531 73.8047 43.4766 73.8047 44.2109C73.8047 44.6953 73.8438 45.0078 73.9219 45.1484C74 45.2891 74.1094 45.3594 74.25 45.3594ZM78 28.1797C77.7344 28.7734 77.4844 29.3516 77.25 29.9141C77.0312 30.4766 76.8203 31.0312 76.6172 31.5781C77.1016 31.0312 77.5391 30.5078 77.9297 30.0078C78.3359 29.5078 78.6797 29.0781 78.9609 28.7188C79.2891 28.2969 79.5859 27.8984 79.8516 27.5234C80.9453 25.9922 81.8906 24.5859 82.6875 23.3047C83.4844 22.0234 84.1406 20.8984 84.6562 19.9297C85.1719 18.9453 85.5469 18.1328 85.7812 17.4922C86.0312 16.8359 86.1562 16.3672 86.1562 16.0859C86.1562 16.0078 86.1484 15.9531 86.1328 15.9219C86.1328 15.875 86.0938 15.8516 86.0156 15.8516C85.875 15.8516 85.5547 16.0859 85.0547 16.5547C84.5547 17.0078 83.9375 17.7344 83.2031 18.7344C82.4844 19.7344 81.6719 21.0156 80.7656 22.5781C79.875 24.125 78.9531 25.9922 78 28.1797ZM95.25 44.9375C95.25 45.0312 95.2969 45.0781 95.3906 45.0781C95.5312 45.0781 95.7656 44.9766 96.0938 44.7734C96.4219 44.5703 96.7969 44.3125 97.2188 44C97.6406 43.6875 98.0859 43.3359 98.5547 42.9453C99.0391 42.5547 99.5 42.1719 99.9375 41.7969C100.375 41.4219 100.766 41.0781 101.109 40.7656C101.469 40.4531 101.742 40.2109 101.93 40.0391C102.07 40.1797 102.242 40.3672 102.445 40.6016C102.664 40.8359 102.859 41.0469 103.031 41.2344C102.656 41.5781 102.203 42 101.672 42.5C101.156 42.9844 100.594 43.4922 99.9844 44.0234C99.3906 44.5547 98.7734 45.0859 98.1328 45.6172C97.4922 46.1328 96.8672 46.5938 96.2578 47C95.6484 47.4062 95.0703 47.7344 94.5234 47.9844C93.9766 48.25 93.5 48.3828 93.0938 48.3828C92.8125 48.3828 92.5 48.3281 92.1562 48.2188C91.8281 48.1094 91.5234 47.9531 91.2422 47.75C90.9609 47.5625 90.7266 47.3359 90.5391 47.0703C90.3516 46.8047 90.2578 46.5078 90.2578 46.1797C90.2578 46.0547 90.25 45.9062 90.2344 45.7344C90.2344 45.5469 90.25 45.3125 90.2812 45.0312C90.3125 44.7344 90.375 44.3828 90.4688 43.9766C90.5625 43.5547 90.7031 43.0391 90.8906 42.4297C90.375 42.9766 89.7656 43.5469 89.0625 44.1406C88.375 44.7344 87.6484 45.2969 86.8828 45.8281C86.1172 46.3594 85.3438 46.8359 84.5625 47.2578C83.7969 47.6953 83.0859 48.0234 82.4297 48.2422C82.3516 48.2734 82.2891 48.2891 82.2422 48.2891C82.1953 48.2891 82.1484 48.2891 82.1016 48.2891C81.9453 48.2891 81.7422 48.2109 81.4922 48.0547C81.2266 47.8984 80.9688 47.6875 80.7188 47.4219C80.4688 47.1719 80.2578 46.8828 80.0859 46.5547C79.8984 46.2266 79.8047 45.8984 79.8047 45.5703C79.8047 45.4766 79.8516 45.1641 79.9453 44.6328C80.0391 44.1016 80.2656 43.4297 80.625 42.6172C80.9688 41.7891 81.4844 40.8672 82.1719 39.8516C82.8594 38.8203 83.7969 37.7656 84.9844 36.6875C85.5938 36.1406 86.25 35.625 86.9531 35.1406C87.5469 34.7344 88.2266 34.3203 88.9922 33.8984C89.7578 33.4766 90.5625 33.1406 91.4062 32.8906C91.4375 32.8906 91.4609 32.8828 91.4766 32.8672C91.5078 32.8516 91.5469 32.8594 91.5938 32.8906C91.7812 32.9531 92 33.0547 92.25 33.1953C92.5156 33.3203 92.7734 33.4609 93.0234 33.6172C93.2891 33.7578 93.5156 33.9062 93.7031 34.0625C93.9062 34.2031 94.0391 34.3203 94.1016 34.4141C94.1172 34.4453 94.1172 34.4688 94.1016 34.4844L94.0547 34.5312C93.3516 34.9062 92.6875 35.3281 92.0625 35.7969C91.4375 36.25 90.8828 36.6797 90.3984 37.0859C89.8359 37.5703 89.3125 38.0469 88.8281 38.5156C87.6875 39.6406 86.8984 40.6172 86.4609 41.4453C86.0234 42.2578 85.8047 42.8438 85.8047 43.2031C85.8047 43.4688 85.9141 43.6016 86.1328 43.6016C86.3516 43.6016 86.625 43.5156 86.9531 43.3438C87.2969 43.1562 87.6797 42.9141 88.1016 42.6172C88.5234 42.3047 88.9844 41.9453 89.4844 41.5391C90 41.1172 90.5312 40.6797 91.0781 40.2266C91.5625 39.8359 92.0312 39.4141 92.4844 38.9609C92.875 38.5859 93.2812 38.1562 93.7031 37.6719C94.125 37.1875 94.4844 36.6953 94.7812 36.1953C94.7812 36.1797 94.7891 36.1641 94.8047 36.1484C94.8203 36.1328 94.8438 36.1328 94.875 36.1484C95.0469 36.2734 95.2422 36.4844 95.4609 36.7812C95.6797 37.0625 95.8828 37.375 96.0703 37.7188C96.2578 38.0625 96.4141 38.3984 96.5391 38.7266C96.6797 39.0391 96.75 39.2812 96.75 39.4531C96.3906 40.1875 96.1094 40.8594 95.9062 41.4688C95.7188 42.0625 95.5703 42.5859 95.4609 43.0391C95.3672 43.4922 95.3047 43.8828 95.2734 44.2109C95.2578 44.5234 95.25 44.7656 95.25 44.9375ZM112.5 37.2969C112.297 37.9062 112.039 38.6016 111.727 39.3828C111.43 40.1641 111.141 40.9297 110.859 41.6797C110.578 42.4297 110.336 43.1094 110.133 43.7188C109.945 44.3281 109.852 44.7656 109.852 45.0312C109.852 45.125 109.898 45.1719 109.992 45.1719C110.164 45.1719 110.422 45.0703 110.766 44.8672C111.109 44.6641 111.5 44.3984 111.938 44.0703C112.391 43.7422 112.859 43.3828 113.344 42.9922C113.828 42.6016 114.289 42.2188 114.727 41.8438C115.18 41.4531 115.586 41.1016 115.945 40.7891C116.305 40.4766 116.578 40.2422 116.766 40.0859C116.906 40.2266 117.07 40.4062 117.258 40.625C117.461 40.8438 117.648 41.0469 117.82 41.2344C117.477 41.5781 117.047 42 116.531 42.5C116.016 42.9844 115.453 43.4844 114.844 44C114.25 44.5156 113.625 45.0312 112.969 45.5469C112.328 46.0625 111.695 46.5234 111.07 46.9297C110.461 47.3359 109.891 47.6641 109.359 47.9141C108.828 48.1641 108.383 48.2891 108.023 48.2891C107.789 48.2891 107.492 48.2031 107.133 48.0312C106.773 47.875 106.43 47.6719 106.102 47.4219C105.773 47.1875 105.492 46.9219 105.258 46.625C105.023 46.3281 104.906 46.0391 104.906 45.7578C105.141 44.7109 105.375 43.7969 105.609 43.0156C105.844 42.2344 106.062 41.5703 106.266 41.0234C106.469 40.4609 106.648 40.0078 106.805 39.6641C106.961 39.3203 107.078 39.0625 107.156 38.8906C106.969 38.8125 106.789 38.7266 106.617 38.6328C106.445 38.5391 106.273 38.4453 106.102 38.3516C105.852 38.6172 105.57 38.8984 105.258 39.1953C104.961 39.4922 104.656 39.7891 104.344 40.0859C104.031 40.3828 103.719 40.6719 103.406 40.9531C103.094 41.2344 102.812 41.4922 102.562 41.7266L101.438 40.5781C101.844 40.1875 102.336 39.7188 102.914 39.1719C103.477 38.6094 104.031 38.0469 104.578 37.4844C104.188 37.25 103.836 37.0312 103.523 36.8281C103.211 36.6094 102.945 36.4141 102.727 36.2422C102.461 36.0547 102.227 35.8828 102.023 35.7266C101.93 35.6797 101.883 35.5781 101.883 35.4219C101.883 35.25 101.953 35.0078 102.094 34.6953C102.219 34.3672 102.383 34.0234 102.586 33.6641C102.789 33.2891 103.008 32.9141 103.242 32.5391C103.477 32.1484 103.703 31.7969 103.922 31.4844C104.141 31.1719 104.328 30.9219 104.484 30.7344C104.656 30.5312 104.766 30.4297 104.812 30.4297C104.844 30.4297 104.945 30.4688 105.117 30.5469C105.305 30.625 105.5 30.7188 105.703 30.8281C105.906 30.9219 106.094 31.0312 106.266 31.1562C106.438 31.2812 106.547 31.3906 106.594 31.4844C106.609 31.5625 106.625 31.7266 106.641 31.9766C106.656 32.2266 106.672 32.5312 106.688 32.8906C107.297 33.2031 107.922 33.5625 108.562 33.9688C109.203 34.3594 109.789 34.7344 110.32 35.0938C110.945 35.5 111.539 35.9141 112.102 36.3359C112.305 36.4609 112.43 36.6172 112.477 36.8047C112.539 36.9922 112.547 37.1562 112.5 37.2969ZM118.266 48.2891C118.031 48.2891 117.734 48.2031 117.375 48.0312C117.016 47.875 116.672 47.6719 116.344 47.4219C116.016 47.1875 115.734 46.9219 115.5 46.625C115.266 46.3281 115.148 46.0391 115.148 45.7578C115.305 45.0703 115.516 44.2812 115.781 43.3906C116.047 42.5 116.336 41.5938 116.648 40.6719C116.945 39.75 117.266 38.8516 117.609 37.9766C117.938 37.0859 118.234 36.2969 118.5 35.6094C118.781 34.9219 119.023 34.3672 119.227 33.9453C119.43 33.5234 119.562 33.3125 119.625 33.3125C119.719 33.3125 119.953 33.4141 120.328 33.6172C120.703 33.8203 121.094 34.0703 121.5 34.3672C121.922 34.6484 122.297 34.9531 122.625 35.2812C122.953 35.5938 123.117 35.8672 123.117 36.1016C123.117 36.1484 123.109 36.2109 123.094 36.2891C123.078 36.3516 123.055 36.4375 123.023 36.5469C122.898 36.9375 122.734 37.3984 122.531 37.9297C122.344 38.4609 122.141 39.0156 121.922 39.5938C121.703 40.1562 121.484 40.7266 121.266 41.3047C121.047 41.8672 120.852 42.3984 120.68 42.8984C120.508 43.3984 120.367 43.8359 120.258 44.2109C120.148 44.5859 120.094 44.8594 120.094 45.0312C120.094 45.125 120.141 45.1719 120.234 45.1719C120.406 45.1719 120.664 45.0703 121.008 44.8672C121.352 44.6641 121.742 44.3984 122.18 44.0703C122.633 43.7422 123.102 43.3828 123.586 42.9922C124.07 42.6016 124.531 42.2188 124.969 41.8438C125.422 41.4531 125.828 41.1016 126.188 40.7891C126.547 40.4766 126.82 40.2422 127.008 40.0859C127.148 40.2266 127.312 40.4062 127.5 40.625C127.703 40.8438 127.891 41.0469 128.062 41.2344C127.719 41.5781 127.289 42 126.773 42.5C126.258 42.9844 125.695 43.4844 125.086 44C124.492 44.5156 123.867 45.0312 123.211 45.5469C122.57 46.0625 121.945 46.5234 121.336 46.9297C120.727 47.3359 120.156 47.6641 119.625 47.9141C119.094 48.1641 118.641 48.2891 118.266 48.2891ZM127.547 26.1641C127.531 26.2266 127.469 26.3828 127.359 26.6328C127.266 26.8672 127.148 27.1484 127.008 27.4766C126.867 27.7891 126.703 28.125 126.516 28.4844C126.344 28.8281 126.172 29.1484 126 29.4453C125.828 29.7422 125.664 29.9922 125.508 30.1953C125.352 30.3828 125.227 30.4766 125.133 30.4766C124.852 30.4609 124.508 30.375 124.102 30.2188C123.711 30.0625 123.328 29.8906 122.953 29.7031C122.594 29.5 122.281 29.3047 122.016 29.1172C121.766 28.9297 121.641 28.7969 121.641 28.7188C121.641 28.3906 121.734 27.9688 121.922 27.4531C122.109 26.9219 122.328 26.4141 122.578 25.9297C122.828 25.4297 123.078 25 123.328 24.6406C123.594 24.2812 123.797 24.1016 123.938 24.1016C124.219 24.1016 124.562 24.1953 124.969 24.3828C125.375 24.5547 125.766 24.7578 126.141 24.9922C126.531 25.2266 126.859 25.4609 127.125 25.6953C127.406 25.9141 127.547 26.0703 127.547 26.1641ZM129.609 44.6094C129.609 45.0781 129.781 45.3125 130.125 45.3125C130.484 45.3125 130.961 45.0312 131.555 44.4688C132.148 43.8906 132.766 43.1641 133.406 42.2891C133.375 42.1172 133.352 41.9688 133.336 41.8438C133.336 41.7031 133.336 41.5781 133.336 41.4688C133.336 41.1562 133.367 40.7891 133.43 40.3672C133.508 39.9297 133.688 39.4375 133.969 38.8906C134.156 38.4688 134.383 38.0547 134.648 37.6484C134.867 37.2891 135.133 36.9062 135.445 36.5C135.758 36.0781 136.102 35.6875 136.477 35.3281L136.617 35.1875C136.773 35.375 136.977 35.6328 137.227 35.9609C137.492 36.2734 137.75 36.6016 138 36.9453C138.266 37.2734 138.492 37.5781 138.68 37.8594C138.883 38.1406 139.008 38.3359 139.055 38.4453C139.055 39.1172 138.93 39.7891 138.68 40.4609C138.445 41.1328 138.125 41.7969 137.719 42.4531C138.656 42.3906 139.523 42.1562 140.32 41.75C141.133 41.3281 141.977 40.6484 142.852 39.7109C142.992 39.8516 143.172 40.0469 143.391 40.2969C143.625 40.5312 143.812 40.7344 143.953 40.9062C143.297 41.5938 142.648 42.1641 142.008 42.6172C141.383 43.0703 140.75 43.4297 140.109 43.6953C139.484 43.9609 138.844 44.1562 138.188 44.2812C137.531 44.3906 136.859 44.4453 136.172 44.4453C135.641 45.0078 135.07 45.5234 134.461 45.9922C133.852 46.4609 133.227 46.8672 132.586 47.2109C131.961 47.5547 131.336 47.8203 130.711 48.0078C130.086 48.1953 129.492 48.2891 128.93 48.2891C128.461 48.2891 127.977 48.1484 127.477 47.8672C126.977 47.5859 126.523 47.2422 126.117 46.8359C125.711 46.4141 125.375 45.9688 125.109 45.5C124.844 45.0312 124.711 44.6172 124.711 44.2578C124.711 43.0703 124.875 41.8906 125.203 40.7188C125.516 39.5469 126.016 38.4531 126.703 37.4375C127.375 36.4062 128.234 35.5 129.281 34.7188C130.344 33.9375 131.602 33.3438 133.055 32.9375C133.102 32.9062 133.18 32.8828 133.289 32.8672C133.414 32.8516 133.516 32.8438 133.594 32.8438C133.812 32.8438 134.039 32.9297 134.273 33.1016C134.523 33.2578 134.75 33.4375 134.953 33.6406C135.172 33.8438 135.352 34.0469 135.492 34.25C135.633 34.4375 135.703 34.5625 135.703 34.625C135.672 34.7031 135.555 34.8047 135.352 34.9297C135.148 35.0391 134.875 35.2344 134.531 35.5156C134.188 35.7969 133.781 36.2031 133.312 36.7344C132.844 37.25 132.328 37.9375 131.766 38.7969C130.922 40.0625 130.352 41.2109 130.055 42.2422C129.758 43.2578 129.609 44.0469 129.609 44.6094Z" fill="#DC2626"/>
</svg>
